HIERARCHY
ROOT Hips
{
	OFFSET -0.001795 -0.223333 0.028219
	CHANNELS 6 Xposition Yposition Zposition Zrotation Yrotation Xrotation 
	JOINT LeftUpLeg
	{
		OFFSET 0.069520 -0.091406 -0.006815
		CHANNELS 3 Zrotation Yrotation Xrotation
		JOINT LeftLeg
		{
			OFFSET 0.034277 -0.375199 -0.004496
			CHANNELS 3 Zrotation Yrotation Xrotation
			JOINT LeftFoot
			{
				OFFSET -0.013596 -0.397961 -0.043693
				CHANNELS 3 Zrotation Yrotation Xrotation
				JOINT LeftToe
				{
					OFFSET 0.026358 -0.055791 0.119288
					CHANNELS 3 Zrotation Yrotation Xrotation
					End Site
					{
						OFFSET 0.000000 0.000000 0.000000
					}
				}
			}
		}
	}
	JOINT RightUpLeg
	{
		OFFSET -0.067670 -0.090522 -0.004320
		CHANNELS 3 Zrotation Yrotation Xrotation
		JOINT RightLeg
		{
			OFFSET -0.038290 -0.382569 -0.008850
			CHANNELS 3 Zrotation Yrotation Xrotation
			JOINT RightFoot
			{
				OFFSET 0.015774 -0.398415 -0.042312
				CHANNELS 3 Zrotation Yrotation Xrotation
				JOINT RightToe
				{
					OFFSET -0.025372 -0.048144 0.123348
					CHANNELS 3 Zrotation Yrotation Xrotation
					End Site
					{
						OFFSET 0.000000 0.000000 0.000000
					}
				}
			}
		}
	}
	JOINT Spine
	{
		OFFSET -0.002533 0.108963 -0.026696
		CHANNELS 3 Zrotation Yrotation Xrotation
		JOINT Spine1
		{
			OFFSET 0.005487 0.135180 0.001092
			CHANNELS 3 Zrotation Yrotation Xrotation
			JOINT Spine2
			{
				OFFSET 0.001457 0.052922 0.025425
				CHANNELS 3 Zrotation Yrotation Xrotation
				JOINT Neck
				{
					OFFSET -0.002778 0.213870 -0.042857
					CHANNELS 3 Zrotation Yrotation Xrotation
					JOINT Head
					{
						OFFSET 0.005152 0.064970 0.051349
						CHANNELS 3 Zrotation Yrotation Xrotation
						End Site
						{
							OFFSET 0.000000 0.000000 0.000000
						}
					}
				}
				JOINT LeftShoulder
				{
					OFFSET 0.078845 0.121749 -0.034090
					CHANNELS 3 Zrotation Yrotation Xrotation
					JOINT LeftArm
					{
						OFFSET 0.090977 0.030469 -0.008868
						CHANNELS 3 Zrotation Yrotation Xrotation
						JOINT LeftForeArm
						{
							OFFSET 0.259612 -0.012772 -0.027456
							CHANNELS 3 Zrotation Yrotation Xrotation
							JOINT LeftHand
							{
								OFFSET 0.249234 0.008986 -0.001171
								CHANNELS 3 Zrotation Yrotation Xrotation
								End Site
								{
									OFFSET 0.000000 0.000000 0.000000
								}
							}
						}
					}
				}
				JOINT RightShoulder
				{
					OFFSET -0.081759 0.118833 -0.038615
					CHANNELS 3 Zrotation Yrotation Xrotation
					JOINT RightArm
					{
						OFFSET -0.096012 0.032551 -0.009143
						CHANNELS 3 Zrotation Yrotation Xrotation
						JOINT RightForeArm
						{
							OFFSET -0.253742 -0.013329 -0.021401
							CHANNELS 3 Zrotation Yrotation Xrotation
							JOINT RightHand
							{
								OFFSET -0.255298 0.007772 -0.005559
								CHANNELS 3 Zrotation Yrotation Xrotation
								End Site
								{
									OFFSET 0.000000 0.000000 0.000000
								}
							}
						}
					}
				}
			}
		}
	}
}
MOTION
Frames: 6
Frame Time: 0.050000
0.000000 0.932510 0.000000 -2.028704 2.048504 23.750541 9.618758 -0.894433 -31.875000 -1.439787 0.024288 5.447930 -10.739313 -6.667336 24.595966 0.000000 0.000000 0.000000 -6.487736 1.794627 -36.649082 0.209960 0.357995 10.946283 -12.836031 -24.852524 44.745992 0.000000 0.000000 0.000000 2.861680 -2.572402 30.610379 0.183264 -0.077822 -0.464560 -2.306784 4.871471 -0.103333 7.315086 -4.286878 -5.836419 0.000000 0.000000 0.000000 -18.177700 -28.385161 12.668867 -33.941760 -33.366068 5.288030 9.242674 -23.040634 -0.954122 0.000000 0.000000 0.000000 15.222483 25.334255 14.242096 31.917999 40.062092 6.602839 -9.038621 14.721433 -0.395063 0.000000 0.000000 0.000000 
-0.002015 0.937983 0.000514 -1.957974 2.423614 22.280694 8.399566 -1.124948 -29.115930 -0.601626 -0.097976 5.280087 -7.632518 -4.548244 19.271374 0.000000 0.000000 0.000000 -6.446142 1.674642 -34.226917 1.825843 0.017005 10.477012 -14.471635 -26.567944 41.644836 0.000000 0.000000 0.000000 3.300278 -2.489280 27.733309 0.228173 -0.039204 -2.206138 -1.873485 5.660856 -0.781551 7.793874 -5.386001 -2.191394 0.000000 0.000000 0.000000 -19.599130 -27.111053 11.661668 -36.278712 -28.910993 4.777849 5.116170 -25.343938 -0.232803 0.000000 0.000000 0.000000 18.278173 21.899377 13.075048 35.843235 36.254789 6.628965 -6.794401 16.334394 -0.173189 0.000000 0.000000 0.000000 
-0.003012 0.940065 0.004070 -1.897752 2.862754 18.691864 7.600079 -1.145499 -24.969542 -0.431188 -0.158201 6.248679 -6.097055 -3.796134 15.462428 0.000000 0.000000 0.000000 -6.070740 1.562477 -30.498334 1.458382 0.112458 12.329408 -12.126154 -24.197541 38.032139 0.000000 0.000000 0.000000 3.853014 -2.450757 25.552034 -0.073606 0.123930 -3.367847 -2.503781 4.872206 -0.350654 5.728901 -5.086497 3.278821 0.000000 0.000000 0.000000 -22.884075 -24.619125 10.452926 -37.710955 -26.563910 4.399644 -0.202130 -24.287194 0.885312 0.000000 0.000000 0.000000 23.782634 19.338974 12.379974 36.516630 30.803903 4.904574 -5.587514 19.248365 -0.041245 0.000000 0.000000 0.000000 
-0.002762 0.941004 0.010271 -1.776169 1.972399 16.594211 6.576691 -1.100190 -21.512012 0.671937 -0.284259 5.270200 -5.804279 -3.654727 14.886457 0.000000 0.000000 0.000000 -5.540476 1.600620 -27.251596 0.689216 0.293657 12.200852 -10.533541 -22.772802 33.302582 0.000000 0.000000 0.000000 3.852670 -2.017277 21.728362 -1.011944 0.523401 -4.035226 -1.754195 3.960004 0.203423 3.812048 -3.098743 0.895124 0.000000 0.000000 0.000000 -21.084638 -19.722817 7.716277 -42.635131 -23.770403 3.964630 -4.378307 -23.760526 1.706360 0.000000 0.000000 0.000000 22.330963 15.203812 8.781983 42.677761 27.423056 5.206033 -2.332855 19.916618 0.434420 0.000000 0.000000 0.000000 
-0.001373 0.941694 0.019127 -1.316844 2.990605 13.092772 5.340995 -1.024178 -16.493126 1.592428 -0.353623 3.862450 -6.512237 -4.898936 14.245890 0.000000 0.000000 0.000000 -5.160345 1.353987 -22.411038 -0.750562 0.577336 12.116790 -9.945437 -21.807923 32.244073 0.000000 0.000000 0.000000 3.937918 -1.604139 17.018760 -0.660426 0.386990 -3.682572 -1.861728 2.957361 0.238504 3.371770 -2.891817 1.631170 0.000000 0.000000 0.000000 -22.064262 -16.469866 5.822766 -45.519874 -20.209959 2.951416 -6.841059 -21.616100 1.981179 0.000000 0.000000 0.000000 22.347916 10.936464 5.856162 46.356386 23.137918 4.253502 0.623242 19.655640 0.859472 0.000000 0.000000 0.000000 
0.000581 0.943306 0.027765 -0.986935 3.453947 11.018993 4.314528 -0.876625 -12.500542 2.449993 -0.342829 1.687669 -7.034037 -5.528023 14.425708 0.000000 0.000000 0.000000 -4.972275 1.178951 -18.815103 -1.710717 0.708520 10.620203 -10.262582 -21.987788 33.534454 0.000000 0.000000 0.000000 4.043826 -1.175514 12.162959 -0.549331 0.306250 -2.218507 -2.228909 2.270827 -1.473274 3.136602 -2.554610 0.748831 0.000000 0.000000 0.000000 -20.226352 -12.373507 3.425771 -49.304897 -17.025338 2.039042 -9.205512 -19.692999 2.162994 0.000000 0.000000 0.000000 18.976719 7.351463 3.315009 52.080489 18.019764 3.175775 3.295870 21.242917 1.369522 0.000000 0.000000 0.000000 
